<?xml version="1.0" encoding="UTF-8" standalone="no"?>
<!-- Created with Inkscape (http://www.inkscape.org/) -->

<svg
   width="36"
   height="36"
   viewBox="0 0 9.5249995 9.525"
   version="1.1"
   id="svg5"
   sodipodi:docname="button_help.svg"
   inkscape:version="1.2.2 (b0a8486541, 2022-12-01)"
   xml:space="preserve"
   xmlns:inkscape="http://www.inkscape.org/namespaces/inkscape"
   xmlns:sodipodi="http://sodipodi.sourceforge.net/DTD/sodipodi-0.dtd"
   xmlns="http://www.w3.org/2000/svg"
   xmlns:svg="http://www.w3.org/2000/svg"><sodipodi:namedview
     id="namedview6"
     pagecolor="#ffffff"
     bordercolor="#999999"
     borderopacity="1"
     inkscape:showpageshadow="0"
     inkscape:pageopacity="0"
     inkscape:pagecheckerboard="0"
     inkscape:deskcolor="#d1d1d1"
     showgrid="true"
     inkscape:zoom="15.615275"
     inkscape:cx="11.431115"
     inkscape:cy="15.369566"
     inkscape:window-width="1920"
     inkscape:window-height="1043"
     inkscape:window-x="0"
     inkscape:window-y="0"
     inkscape:window-maximized="1"
     inkscape:current-layer="svg5"><inkscape:grid
       type="xygrid"
       id="grid112" /></sodipodi:namedview><defs
     id="defs2" /><g
     id="layer1"
     style="fill:#00ff00" /><g
     id="g248"
     style="fill:#333333"
     transform="translate(0,0.13229166)"><path
       id="path246"
       style="fill:#333333;fill-rule:evenodd;stroke-width:0.0355372"
       inkscape:label="rect111"
       d="M 2.2820312,8.5989581 H 7.2429686 A 1.4882812,1.4882812 0 0 0 8.7312498,7.1106769 V 2.1497395 A 1.4882812,1.4882812 0 0 0 7.2429686,0.66145832 H 2.2820312 A 1.4882812,1.4882812 0 0 0 0.79374998,2.1497395 V 7.1106769 A 1.4882812,1.4882812 0 0 0 2.2820312,8.5989581 Z M 2.1166667,8.8635416 h 5.2916666 a 1.5875,1.5875 0 0 0 1.5875,-1.5875 V 1.984375 a 1.5875,1.5875 0 0 0 -1.5875,-1.58749999 H 2.1166667 A 1.5875,1.5875 0 0 0 0.52916667,1.984375 v 5.2916666 a 1.5875,1.5875 0 0 0 1.58750003,1.5875 z" /></g><path
     d="m 5.3754799,7.2056524 c 0,0.365125 -0.295275,0.6614583 -0.6611937,0.6614583 -0.3645959,0 -0.6611938,-0.2963333 -0.6611938,-0.6614583 0,-0.365125 0.2965979,-0.6614583 0.6611938,-0.6614583 0.3659187,0 0.6611937,0.2960687 0.6611937,0.6614583 z M 4.7351882,1.5171108 c -1.0660062,0 -1.8679583,0.7125229 -1.8679583,2.1166666 H 3.913657 c 0,-0.6096 0.2397125,-1.1083395 0.8001,-1.1083395 0.3299354,0 0.6799792,0.219075 0.7101417,0.6379104 C 5.4564427,3.6041441 5.2209632,3.827717 4.923307,4.1110858 4.1496653,4.8466274 4.1782403,5.1823837 4.1782403,6.0150274 h 1.0432521 c 0,-0.384175 -0.04154,-0.663575 0.4863042,-1.2326937 C 6.059957,4.402392 6.4978424,3.9298462 6.5071028,3.2099149 6.5195382,2.1613712 5.7792341,1.5171108 4.7351882,1.5171108 Z"
     id="path348"
     style="stroke-width:0.264583;fill:#333333;fill-opacity:1" /></svg>
