<?xml version="1.0" encoding="UTF-8" standalone="no"?>
<!-- Created with Inkscape (http://www.inkscape.org/) -->

<svg
   width="36"
   height="36"
   viewBox="0 0 9.5249995 9.525"
   version="1.1"
   id="svg5"
   sodipodi:docname="button_restart.svg"
   inkscape:version="1.2.2 (b0a8486541, 2022-12-01)"
   xml:space="preserve"
   xmlns:inkscape="http://www.inkscape.org/namespaces/inkscape"
   xmlns:sodipodi="http://sodipodi.sourceforge.net/DTD/sodipodi-0.dtd"
   xmlns="http://www.w3.org/2000/svg"
   xmlns:svg="http://www.w3.org/2000/svg"><sodipodi:namedview
     id="namedview6"
     pagecolor="#ffffff"
     bordercolor="#999999"
     borderopacity="1"
     inkscape:showpageshadow="0"
     inkscape:pageopacity="0"
     inkscape:pagecheckerboard="0"
     inkscape:deskcolor="#d1d1d1"
     showgrid="true"
     inkscape:zoom="22.083333"
     inkscape:cx="14.988679"
     inkscape:cy="18"
     inkscape:window-width="1920"
     inkscape:window-height="1011"
     inkscape:window-x="0"
     inkscape:window-y="32"
     inkscape:window-maximized="1"
     inkscape:current-layer="svg5"><inkscape:grid
       type="xygrid"
       id="grid112" /></sodipodi:namedview><defs
     id="defs2" /><g
     id="layer1"
     style="fill:#00ff00" /><g
     id="g248"
     style="fill:#333333"
     transform="translate(0,0.13229166)"><path
       id="path246"
       style="fill:#333333;fill-rule:evenodd;stroke-width:0.0355372"
       inkscape:label="rect111"
       d="M 2.2820312,8.5989581 H 7.2429686 A 1.4882812,1.4882812 0 0 0 8.7312498,7.1106769 V 2.1497395 A 1.4882812,1.4882812 0 0 0 7.2429686,0.66145832 H 2.2820312 A 1.4882812,1.4882812 0 0 0 0.79374998,2.1497395 V 7.1106769 A 1.4882812,1.4882812 0 0 0 2.2820312,8.5989581 Z M 2.1166667,8.8635416 h 5.2916666 a 1.5875,1.5875 0 0 0 1.5875,-1.5875 V 1.984375 a 1.5875,1.5875 0 0 0 -1.5875,-1.58749999 H 2.1166667 A 1.5875,1.5875 0 0 0 0.52916667,1.984375 v 5.2916666 a 1.5875,1.5875 0 0 0 1.58750003,1.5875 z" /></g><path
     d="m 4.5323339,2.1639897 c -1.3187517,0 -2.3956189,1.0423794 -2.4575564,2.3461159 h -0.7097 L 2.5381354,6.0644074 3.7111934,4.5101056 H 3.0132239 c 0.060295,-0.7861834 0.7179114,-1.4076695 1.51911,-1.4076695 0.8408479,0 1.5249753,0.6841274 1.5249753,1.5249753 0,0.8408479 -0.6841274,1.5249753 -1.5249753,1.5249753 -0.4370813,0 -0.8309942,-0.186047 -1.1092436,-0.4816576 L 2.853688,6.42524 c 0.440366,0.4115088 1.0297103,0.6655931 1.6786459,0.6655931 1.3584012,0 2.4634217,-1.1050206 2.4634217,-2.4634217 0,-1.3584011 -1.1050205,-2.4634217 -2.4634217,-2.4634217 z"
     id="path1437"
     style="stroke-width:0.234611;fill:#333333" /></svg>
