<?xml version="1.0" encoding="UTF-8" standalone="no"?>
<!-- Created with Inkscape (http://www.inkscape.org/) -->

<svg
   width="36"
   height="36"
   viewBox="0 0 9.5249995 9.525"
   version="1.1"
   id="svg5"
   sodipodi:docname="button_undo.svg"
   inkscape:version="1.2.2 (b0a8486541, 2022-12-01)"
   xml:space="preserve"
   xmlns:inkscape="http://www.inkscape.org/namespaces/inkscape"
   xmlns:sodipodi="http://sodipodi.sourceforge.net/DTD/sodipodi-0.dtd"
   xmlns="http://www.w3.org/2000/svg"
   xmlns:svg="http://www.w3.org/2000/svg"><sodipodi:namedview
     id="namedview6"
     pagecolor="#ffffff"
     bordercolor="#999999"
     borderopacity="1"
     inkscape:showpageshadow="0"
     inkscape:pageopacity="0"
     inkscape:pagecheckerboard="0"
     inkscape:deskcolor="#d1d1d1"
     showgrid="true"
     inkscape:zoom="22.083333"
     inkscape:cx="17.977358"
     inkscape:cy="18"
     inkscape:window-width="1920"
     inkscape:window-height="1011"
     inkscape:window-x="0"
     inkscape:window-y="32"
     inkscape:window-maximized="1"
     inkscape:current-layer="svg5"><inkscape:grid
       type="xygrid"
       id="grid112" /></sodipodi:namedview><defs
     id="defs2" /><g
     id="layer1"
     style="fill:#00ff00" /><g
     id="g248"
     style="fill:#333333"
     transform="translate(0,0.13229166)"><path
       id="path246"
       style="fill:#333333;fill-rule:evenodd;stroke-width:0.0355372"
       inkscape:label="rect111"
       d="M 2.2820312,8.5989581 H 7.2429686 A 1.4882812,1.4882812 0 0 0 8.7312498,7.1106769 V 2.1497395 A 1.4882812,1.4882812 0 0 0 7.2429686,0.66145832 H 2.2820312 A 1.4882812,1.4882812 0 0 0 0.79374998,2.1497395 V 7.1106769 A 1.4882812,1.4882812 0 0 0 2.2820312,8.5989581 Z M 2.1166667,8.8635416 h 5.2916666 a 1.5875,1.5875 0 0 0 1.5875,-1.5875 V 1.984375 a 1.5875,1.5875 0 0 0 -1.5875,-1.58749999 H 2.1166667 A 1.5875,1.5875 0 0 0 0.52916667,1.984375 v 5.2916666 a 1.5875,1.5875 0 0 0 1.58750003,1.5875 z" /></g><path
     d="M 6.2642181,2.8520817 C 5.2825683,1.8845969 3.7009154,1.8724458 2.7016185,2.8112285 L 2.2489583,2.3381708 V 4.0012053 H 3.8401791 L 3.4009138,3.5421844 c 0.599578,-0.566915 1.5514613,-0.5606299 2.1416843,0.02095 0.9229675,0.9094522 0.3693146,2.5750008 -1.1674762,2.5750008 v 1.0056142 c 0.7883813,0 1.4062444,-0.2606216 1.8890962,-0.7364029 0.9963201,-0.9817309 0.9963201,-2.5735344 0,-3.5552648 z"
     id="path4337"
     style="stroke-width:0.211053;fill:#333333" /></svg>
