<?xml version="1.0" encoding="UTF-8" standalone="no"?>
<!-- Created with Inkscape (http://www.inkscape.org/) -->

<svg
   width="36"
   height="36"
   viewBox="0 0 9.5249995 9.525"
   version="1.1"
   id="svg5"
   sodipodi:docname="tile_round_border.svg"
   inkscape:version="1.2.2 (b0a8486541, 2022-12-01)"
   xmlns:inkscape="http://www.inkscape.org/namespaces/inkscape"
   xmlns:sodipodi="http://sodipodi.sourceforge.net/DTD/sodipodi-0.dtd"
   xmlns="http://www.w3.org/2000/svg"
   xmlns:svg="http://www.w3.org/2000/svg">
  <sodipodi:namedview
     id="namedview6"
     pagecolor="#ffffff"
     bordercolor="#999999"
     borderopacity="1"
     inkscape:showpageshadow="0"
     inkscape:pageopacity="0"
     inkscape:pagecheckerboard="0"
     inkscape:deskcolor="#d1d1d1"
     showgrid="true"
     inkscape:zoom="16.342023"
     inkscape:cx="5.0177386"
     inkscape:cy="21.631349"
     inkscape:window-width="1920"
     inkscape:window-height="1011"
     inkscape:window-x="0"
     inkscape:window-y="32"
     inkscape:window-maximized="1"
     inkscape:current-layer="svg5">
    <inkscape:grid
       type="xygrid"
       id="grid112" />
  </sodipodi:namedview>
  <defs
     id="defs2" />
  <g
     id="layer1"
     style="fill:#00ff00" />
  <g
     id="g248"
     style="fill:#b3b3b3"
     transform="translate(0,0.13229166)">
    <path
       id="path246"
       style="fill:#b3b3b3;fill-rule:evenodd;stroke-width:0.0355372"
       inkscape:label="rect111"
       d="M 2.2820312,8.5989581 H 7.2429686 A 1.4882812,1.4882812 0 0 0 8.7312498,7.1106769 V 2.1497395 A 1.4882812,1.4882812 0 0 0 7.2429686,0.66145832 H 2.2820312 A 1.4882812,1.4882812 0 0 0 0.79374998,2.1497395 V 7.1106769 A 1.4882812,1.4882812 0 0 0 2.2820312,8.5989581 Z M 2.1166667,8.8635416 h 5.2916666 a 1.5875,1.5875 0 0 0 1.5875,-1.5875 V 1.984375 a 1.5875,1.5875 0 0 0 -1.5875,-1.58749999 H 2.1166667 A 1.5875,1.5875 0 0 0 0.52916667,1.984375 v 5.2916666 a 1.5875,1.5875 0 0 0 1.58750003,1.5875 z" />
  </g>
</svg>
